PathFileType	4	(X/Y/Z)	c:/Users/goper/Files/vsCode/490R/osim_files/C07/C07_Slow_02.trc
DataRate	CameraRate	NumFrames	NumMarkers	Units                	OrigDataRate	OrigDataStartFrame	OrigNumFrames
250.00	250.00	8	36	mm	250.0	3055	3491
                Frame#	Time	LPSIS			LASIS			LTH1			LTH2			LTH3			LTH4			LLFE			LMFE			LSH1			LSH2			LSH3			LSH4			LLMAL			LMMAL			LCAL			LMTP5			LTOE			LMTP1			RPSIS			RASIS			RTH1			RTH2			RTH3			RTH4			RLFE			RMFE			RSH1			RSH2			RSH3			RSH4			RLMAL			RMMAL			RCAL			RMTP1			RTOE			RMTP5		
		X1	Y1	Z1	X2	Y2	Z2	X3	Y3	Z3	X4	Y4	Z4	X5	Y5	Z5	X6	Y6	Z6	X7	Y7	Z7	X8	Y8	Z8	X9	Y9	Z9	X10	Y10	Z10	X11	Y11	Z11	X12	Y12	Z12	X13	Y13	Z13	X14	Y14	Z14	X15	Y15	Z15	X16	Y16	Z16	X17	Y17	Z17	X18	Y18	Z18	X19	Y19	Z19	X20	Y20	Z20	X21	Y21	Z21	X22	Y22	Z22	X23	Y23	Z23	X24	Y24	Z24	X25	Y25	Z25	X26	Y26	Z26	X27	Y27	Z27	X28	Y28	Z28	X29	Y29	Z29	X30	Y30	Z30	X31	Y31	Z31	X32	Y32	Z32	X33	Y33	Z33	X34	Y34	Z34	X35	Y35	Z35	X36	Y36	Z36

3055	12.21600	-497.94644	1004.15802	846.51538	-335.38031	982.99170	756.66248	-383.04837	784.88049	709.06305	-361.83398	709.40430	705.09491	-339.67743	636.59583	712.58856	-284.60513	731.42273	716.17578	-339.32288	509.74564	730.19788	-316.73480	494.89911	849.49170	-331.57220	315.06226	723.13507	0.00000	0.00000	0.00000	-292.66205	330.46832	726.41809	0.00000	0.00000	0.00000	-279.00671	92.87425	780.17560	-241.89717	128.78645	842.20728	-313.37689	39.64548	840.04041	-138.67424	36.04006	749.15930	-80.22144	62.03249	793.07977	-105.70082	52.28690	848.68433	-487.53778	1003.47986	944.07538	-324.11932	961.27844	1010.59344	-381.15497	810.74133	1066.92908	-384.24496	732.10089	1069.89429	-389.13046	650.55164	1064.31067	-314.42596	728.99854	1034.29419	-427.16058	478.28769	1039.20129	-419.97717	483.37961	922.52374	-589.32690	381.21024	1047.88428	-601.39801	324.97562	1048.96582	-542.94354	341.60187	1046.12952	0.00000	0.00000	0.00000	-736.10297	216.81189	1008.91101	-707.66534	202.63377	930.68341	-809.23242	221.13138	957.79285	-694.32288	59.26207	912.62494	-676.25531	54.22821	960.80646	-713.21503	58.18587	1022.73248
3056	12.22000	-493.77652	1004.97461	845.91125	-330.95956	983.90710	755.92114	-379.50925	785.64587	708.66522	-358.59653	710.00092	704.85394	-336.77173	637.09937	712.28925	-281.10483	731.69928	715.41589	-337.44876	510.23047	729.64130	-315.08472	495.18643	848.95380	-330.57773	315.29865	722.59564	0.00000	0.00000	0.00000	-291.52344	330.56409	725.93341	-282.67343	286.07092	734.86871	-279.22180	92.72496	780.09064	-241.78123	128.78577	842.02032	-313.30920	39.59275	839.92889	-138.64302	36.03705	749.10388	-80.19756	61.86855	793.20612	-105.67368	52.11856	848.75098	-483.83215	1003.89954	943.37872	-320.55682	961.66901	1010.02875	-376.01938	810.52942	1066.07776	-377.98822	731.89136	1069.50806	-381.83682	650.09100	1063.75488	-308.45032	729.63031	1033.77026	-418.19861	478.00461	1038.74512	-411.05853	483.17316	922.08307	-580.75409	382.56470	1047.90881	-593.53235	326.44449	1048.84192	-534.77484	342.49661	1046.06641	0.00000	0.00000	0.00000	-729.14337	220.36821	1009.18347	-701.54547	205.61421	930.89685	-802.28491	226.77531	958.43604	-691.17041	61.78121	912.83301	-673.06525	55.68992	961.08710	-710.29181	60.39397	1021.91705
3057	12.22400	-490.07373	1005.67346	845.18677	-327.12250	984.40759	755.60712	-375.95697	786.25940	708.29840	-355.93082	710.37445	704.57666	-334.04028	637.47205	712.01538	0.00000	0.00000	0.00000	-335.64410	510.49329	729.23920	-313.63403	495.49582	848.38831	-329.46375	315.61285	721.96570	0.00000	0.00000	0.00000	-290.38165	330.69846	725.59772	0.00000	0.00000	0.00000	-277.64285	93.25454	780.22675	-241.64931	128.80186	841.82208	-313.26859	39.56996	839.88965	-138.63310	35.98348	749.12701	-80.16510	61.71767	793.35278	-105.61913	51.91031	848.83240	-480.44736	1004.45520	942.58820	-317.12418	962.13617	1009.54266	-370.90485	810.51117	1065.34827	-371.92410	731.71216	1068.87366	-374.78964	649.78943	1063.20850	-302.24927	730.35876	1033.11072	-409.22842	477.74734	1038.34851	-400.27985	482.59531	923.11804	-572.19971	384.01419	1047.88391	-585.53650	327.92288	1048.81335	-526.82220	343.25372	1045.68738	0.00000	0.00000	0.00000	-722.17841	224.01135	1009.46979	-694.95569	208.67996	931.06354	-795.01630	232.36441	959.07770	-687.90350	64.38143	913.03192	-669.93396	56.80143	961.60504	-708.26263	66.35395	1023.29791
3058	12.22800	-486.34790	1006.50421	844.32141	-323.32452	984.80975	755.29065	-372.66052	786.79150	707.97144	-353.05029	710.84552	704.26599	-331.46600	637.82874	711.74634	-274.84061	731.93164	713.92334	-333.87860	510.92053	728.72363	-312.12866	495.86902	847.98468	-328.37949	315.86200	721.49323	-330.80270	268.83569	740.34869	-289.23294	330.91223	725.17224	0.00000	0.00000	0.00000	-277.64069	93.27057	780.10925	-241.62677	128.85066	841.67682	-313.34045	39.58717	839.84784	-138.65463	35.95694	749.10925	-80.16607	61.57077	793.46246	-105.62447	51.73319	848.91815	-476.73782	1004.88672	941.79645	-313.67557	962.65479	1009.03271	-366.06686	810.71466	1064.80237	-365.92709	731.70605	1068.21521	-367.67062	649.75891	1062.84790	-296.20499	731.14630	1032.52515	-400.44583	477.72601	1037.95801	-393.04102	482.80890	921.48248	-563.73267	385.56815	1047.88025	-577.86584	329.52850	1048.64124	-518.62762	344.36926	1045.39612	0.00000	0.00000	0.00000	-714.99469	227.46536	1009.72571	-688.35223	211.62846	931.19452	-787.43970	237.96164	959.61334	-685.17413	66.92307	913.62445	-666.28888	58.28149	961.72528	-704.75787	69.55147	1023.65619
3059	12.23200	-482.57224	1007.09253	843.67548	-318.97556	985.44366	754.46216	-369.51654	787.27765	707.64709	-350.31766	711.28528	703.91895	-329.03683	638.14069	711.38531	0.00000	0.00000	0.00000	-332.25937	511.17557	728.38934	-310.60645	496.17712	847.57666	-327.28223	316.18790	721.03589	-329.69690	269.16699	739.72400	-288.04404	331.08655	724.87134	0.00000	0.00000	0.00000	-277.59970	93.30228	779.98749	-241.51804	128.87527	841.54211	-313.41501	39.66828	839.78143	-138.65288	35.92282	749.11633	-80.15162	61.46101	793.52258	-105.66433	51.54689	848.98547	-473.30692	1005.22339	941.05023	-310.27719	963.15448	1008.53131	-361.20709	810.64117	1063.94373	-360.01447	731.83173	1067.77258	-360.65247	649.89520	1062.34692	-290.24915	731.93378	1031.82800	-391.70126	477.79068	1037.40198	-384.83835	482.92819	920.55920	-555.17889	387.09906	1047.89014	-569.26086	332.04028	1049.45874	-510.64587	345.41382	1045.47571	0.00000	0.00000	0.00000	-708.04828	230.98718	1009.89575	-681.68048	214.59908	931.36639	-779.79901	243.40646	960.26709	-681.50836	69.42189	913.93225	-662.86664	59.24282	962.29742	-701.10254	72.82144	1024.01550
3060	12.23600	-478.98038	1007.68115	842.78815	-315.23215	985.80756	754.12726	-366.47327	787.78888	707.28625	-347.72821	711.69104	703.50049	-326.78973	638.39545	710.92407	0.00000	0.00000	0.00000	-330.67862	511.52792	727.98010	-309.04065	496.53476	847.15588	-326.19424	316.51535	720.75946	-328.77628	269.49792	739.38843	-286.97067	331.27301	724.64667	0.00000	0.00000	0.00000	-278.90887	92.97546	779.53009	-241.38409	128.92830	841.43683	-313.46170	39.80505	839.72406	-138.64880	35.90936	749.09692	-80.12904	61.34991	793.56543	-105.60069	51.44057	848.99908	-469.78717	1005.57690	940.16644	-306.87985	963.70221	1008.07751	-356.40753	810.85376	1063.16711	-354.00729	731.98077	1067.09827	-353.72934	650.03296	1061.64490	-284.26562	732.86041	1031.20935	-382.77939	477.88483	1036.89514	-376.24548	483.07208	919.96765	-546.57880	388.62485	1047.68689	-561.35767	333.73581	1049.19397	-502.58386	346.54980	1044.93127	0.00000	0.00000	0.00000	-700.72528	234.28378	1010.13977	-674.73407	217.48422	931.50378	-771.73517	248.68030	960.82898	-677.70178	71.80279	914.18768	-658.96771	60.46214	962.45972	-697.08862	75.79684	1023.94275
3061	12.24000	-475.23416	1008.28076	841.89594	-311.63684	986.05664	753.89032	-363.65201	788.18890	706.88312	-345.34985	711.96692	703.09961	-324.83798	638.60803	710.41406	-266.68997	731.87207	711.02942	-329.13046	511.77963	727.68170	-307.31317	496.90295	846.74799	-325.13638	316.85736	720.59772	-328.18307	269.65762	739.42346	-285.82050	331.47211	724.50018	0.00000	0.00000	0.00000	-277.50162	93.40184	779.88922	-241.17778	128.93555	841.32135	-313.41437	39.83247	839.67126	-138.58344	35.90071	749.08215	-80.04758	61.27021	793.58612	-105.48709	51.35120	848.95459	-466.31110	1006.00104	939.30975	-303.41678	964.26215	1007.56036	-351.53107	811.00330	1062.42432	-348.09595	732.18988	1066.31873	-346.62650	650.28754	1060.97595	-278.33875	733.80182	1030.52893	-373.84106	478.09924	1036.41272	-367.68369	483.31827	919.30090	-537.84192	390.11191	1047.51953	-553.00311	335.35580	1049.16638	-494.00952	347.62561	1044.84192	0.00000	0.00000	0.00000	-693.17059	237.46320	1010.35297	-667.67480	220.35983	931.63995	-763.39587	253.93123	961.28040	-673.57892	74.02870	914.47711	-654.75751	61.44939	962.75549	-692.90741	78.80413	1023.90186
3062	12.24400	-471.81775	1008.72479	841.17651	-307.43521	986.52045	753.07355	-360.93280	788.55573	706.48169	-342.46008	712.39648	702.48083	-323.07117	638.82690	709.81787	-264.29288	731.82935	709.98163	-327.69879	512.05798	727.32251	-305.70685	497.17426	846.44489	-324.18719	317.21674	720.48663	-327.33069	270.07181	739.34003	-284.89221	331.62222	724.41699	0.00000	0.00000	0.00000	-277.43057	93.34466	780.01196	-240.97095	128.98962	841.25793	-313.38464	39.86081	839.61023	-138.61594	35.90784	749.07550	-80.00750	61.15063	793.63397	-105.39648	51.21868	848.98267	-462.85007	1006.24731	938.51440	-299.90356	964.84589	1007.02722	-346.63052	811.26587	1061.70923	-342.15720	732.38245	1065.74390	-339.70886	650.54138	1060.27527	-272.56384	734.77704	1029.88477	-365.00220	478.19293	1035.79810	-359.28357	483.64935	918.66638	-528.98975	391.49167	1047.34375	-544.78967	336.92230	1048.83521	-485.69601	348.51578	1044.20825	0.00000	0.00000	0.00000	-685.80267	240.48596	1010.43243	-660.36133	223.16872	931.82306	-754.88739	258.84006	961.69885	-669.21759	76.05209	914.87280	-650.51105	62.20947	963.17041	-688.05121	81.60121	1024.07141
